<svg width="234" height="79" viewBox="0 0 234 79" fill="none" xmlns="http://www.w3.org/2000/svg">
<path opacity="0.83" d="M124.439 73.9665C124.439 73.7341 124.403 73.5267 124.331 73.3442C124.265 73.1561 124.141 72.9874 123.958 72.838C123.781 72.6831 123.529 72.5338 123.203 72.39C122.882 72.2406 122.467 72.0857 121.958 71.9253C121.394 71.7483 120.869 71.5492 120.382 71.3279C119.895 71.1066 119.466 70.8494 119.096 70.5562C118.731 70.2631 118.446 69.9256 118.241 69.5439C118.037 69.1567 117.934 68.7087 117.934 68.1998C117.934 67.7019 118.039 67.2483 118.249 66.839C118.465 66.4296 118.769 66.0784 119.162 65.7852C119.555 65.4865 120.017 65.2569 120.548 65.0965C121.084 64.9361 121.676 64.8559 122.324 64.8559C123.22 64.8559 123.994 65.0191 124.647 65.3454C125.305 65.6718 125.814 66.1143 126.174 66.673C126.533 67.2317 126.713 67.8596 126.713 68.5566H124.439C124.439 68.1804 124.359 67.8485 124.199 67.5609C124.044 67.2732 123.806 67.0464 123.485 66.8805C123.17 66.7145 122.772 66.6315 122.29 66.6315C121.826 66.6315 121.438 66.7007 121.129 66.839C120.824 66.9773 120.595 67.1653 120.44 67.4032C120.291 67.6411 120.216 67.9066 120.216 68.1998C120.216 68.421 120.269 68.6202 120.374 68.7972C120.479 68.9687 120.636 69.1318 120.847 69.2867C121.057 69.4361 121.317 69.5771 121.627 69.7099C121.942 69.8371 122.307 69.9643 122.722 70.0916C123.386 70.2907 123.966 70.512 124.464 70.7554C124.968 70.9988 125.385 71.2753 125.717 71.5851C126.055 71.8949 126.306 72.2434 126.472 72.6306C126.644 73.0178 126.729 73.4576 126.729 73.9499C126.729 74.4699 126.627 74.9345 126.422 75.3439C126.218 75.7532 125.925 76.1017 125.543 76.3893C125.161 76.677 124.702 76.8955 124.166 77.0448C123.635 77.1942 123.04 77.2689 122.382 77.2689C121.795 77.2689 121.214 77.1914 120.639 77.0365C120.069 76.8761 119.552 76.6382 119.088 76.3229C118.623 76.0021 118.252 75.5983 117.976 75.1115C117.699 74.6192 117.561 74.0439 117.561 73.3857H119.851C119.851 73.7673 119.912 74.0937 120.033 74.3648C120.161 74.6303 120.338 74.8488 120.564 75.0203C120.797 75.1862 121.068 75.3079 121.378 75.3853C121.687 75.4628 122.022 75.5015 122.382 75.5015C122.846 75.5015 123.228 75.4379 123.527 75.3107C123.831 75.1779 124.058 74.9954 124.207 74.763C124.362 74.5307 124.439 74.2652 124.439 73.9665ZM140.727 75.3107V77.1029H134.305V75.3107H140.727ZM135.002 65.0218V77.1029H132.72V65.0218H135.002ZM139.889 70.0086V71.7594H134.305V70.0086H139.889ZM140.702 65.0218V66.8224H134.305V65.0218H140.702ZM153.613 73.1284H155.895C155.834 73.9361 155.61 74.6524 155.223 75.2775C154.836 75.897 154.296 76.3838 153.605 76.7378C152.913 77.0918 152.075 77.2689 151.091 77.2689C150.333 77.2689 149.65 77.1361 149.041 76.8706C148.438 76.5995 147.921 76.2151 147.49 75.7172C147.064 75.2139 146.737 74.6109 146.511 73.9084C146.284 73.2003 146.17 72.4066 146.17 71.527V70.606C146.17 69.7265 146.286 68.9327 146.519 68.2247C146.751 67.5166 147.083 66.9137 147.515 66.4158C147.952 65.9124 148.474 65.5252 149.083 65.2542C149.697 64.9831 150.383 64.8476 151.14 64.8476C152.125 64.8476 152.958 65.0301 153.638 65.3952C154.318 65.7548 154.847 66.2499 155.223 66.8805C155.599 67.5111 155.826 68.2357 155.903 69.0544H153.621C153.577 68.5455 153.467 68.114 153.29 67.76C153.118 67.406 152.858 67.1377 152.51 66.9551C152.167 66.7671 151.71 66.673 151.14 66.673C150.698 66.673 150.308 66.756 149.971 66.922C149.639 67.0879 149.362 67.3368 149.141 67.6687C148.92 67.9951 148.754 68.4044 148.643 68.8967C148.532 69.3835 148.477 69.9478 148.477 70.5894V71.527C148.477 72.141 148.527 72.6914 148.626 73.1782C148.726 73.665 148.881 74.0771 149.091 74.4145C149.301 74.752 149.572 75.0092 149.904 75.1862C150.236 75.3632 150.632 75.4517 151.091 75.4517C151.649 75.4517 152.103 75.3632 152.451 75.1862C152.806 75.0092 153.074 74.7492 153.256 74.4062C153.444 74.0633 153.563 73.6373 153.613 73.1284ZM168.615 65.0218H170.897V73.0455C170.897 73.9692 170.698 74.7464 170.299 75.377C169.901 76.0021 169.359 76.4751 168.673 76.7959C167.987 77.1112 167.207 77.2689 166.333 77.2689C165.448 77.2689 164.66 77.1112 163.968 76.7959C163.277 76.4751 162.735 76.0021 162.342 75.377C161.949 74.7464 161.753 73.9692 161.753 73.0455V65.0218H164.035V73.0455C164.035 73.6097 164.129 74.0716 164.317 74.4311C164.505 74.7852 164.77 75.0479 165.113 75.2194C165.456 75.3909 165.863 75.4766 166.333 75.4766C166.809 75.4766 167.215 75.3909 167.553 75.2194C167.896 75.0479 168.159 74.7852 168.341 74.4311C168.524 74.0716 168.615 73.6097 168.615 73.0455V65.0218ZM177.294 65.0218H181.683C182.602 65.0218 183.39 65.1601 184.048 65.4367C184.706 65.7133 185.213 66.1226 185.567 66.6647C185.921 67.2068 186.098 67.8734 186.098 68.6644C186.098 69.2895 185.987 69.8316 185.766 70.2907C185.544 70.7498 185.232 71.1343 184.828 71.4441C184.43 71.7538 183.96 71.9972 183.417 72.1742L182.704 72.5393H178.829L178.812 70.7388H181.708C182.178 70.7388 182.568 70.6558 182.878 70.4899C183.188 70.3239 183.42 70.0943 183.575 69.8012C183.736 69.508 183.816 69.1733 183.816 68.7972C183.816 68.3934 183.738 68.0449 183.583 67.7517C183.429 67.453 183.193 67.2234 182.878 67.063C182.563 66.9026 182.165 66.8224 181.683 66.8224H179.576V77.1029H177.294V65.0218ZM184.114 77.1029L181.318 71.693L183.733 71.6847L186.562 76.9867V77.1029H184.114ZM194.76 65.0218V77.1029H192.478V65.0218H194.76ZM206.227 65.0218V77.1029H203.954V65.0218H206.227ZM209.978 65.0218V66.8224H200.245V65.0218H209.978ZM216.723 65.0218L219.379 70.6558L222.05 65.0218H224.556L220.54 72.6804V77.1029H218.225V72.6804L214.201 65.0218H216.723ZM223.851 76.0325C223.851 75.7006 223.964 75.4213 224.191 75.1945C224.418 74.9677 224.725 74.8543 225.112 74.8543C225.499 74.8543 225.806 74.9677 226.033 75.1945C226.26 75.4213 226.373 75.7006 226.373 76.0325C226.373 76.3589 226.26 76.6355 226.033 76.8623C225.806 77.0835 225.499 77.1942 225.112 77.1942C224.725 77.1942 224.418 77.0835 224.191 76.8623C223.964 76.6355 223.851 76.3589 223.851 76.0325Z" fill="black"/>
<path d="M97.8493 60.9771C97.1691 59.1765 96.5289 57.416 95.9288 55.6954C95.3286 53.9349 94.7084 52.1544 94.0682 50.3538H75.2224L71.4413 60.9771H65.3794C66.9799 56.5757 68.4804 52.5145 69.8808 48.7933C71.2812 45.0322 72.6417 41.4711 73.9621 38.1101C75.3225 34.749 76.6629 31.5481 77.9833 28.5071C79.3037 25.4262 80.6841 22.3853 82.1245 19.3844H87.4662C88.9066 22.3853 90.287 25.4262 91.6074 28.5071C92.9278 31.5481 94.2482 34.749 95.5687 38.1101C96.9291 41.4711 98.3095 45.0322 99.7099 48.7933C101.11 52.5145 102.611 56.5757 104.211 60.9771H97.8493ZM92.3877 45.5523C91.1073 42.0713 89.8269 38.7103 88.5465 35.4693C87.3061 32.1883 86.0057 29.0473 84.6453 26.0464C83.2449 29.0473 81.9045 32.1883 80.6241 35.4693C79.3837 38.7103 78.1433 42.0713 76.903 45.5523H92.3877ZM139.776 19.3844C138.255 23.7857 136.795 27.8669 135.395 31.6281C134.034 35.3492 132.694 38.8903 131.373 42.2513C130.053 45.6124 128.733 48.8333 127.412 51.9143C126.132 54.9552 124.811 57.9761 123.451 60.9771H117.989C116.629 57.9761 115.288 54.9552 113.968 51.9143C112.688 48.8333 111.367 45.6124 110.007 42.2513C108.686 38.8903 107.326 35.3492 105.926 31.6281C104.525 27.8669 103.085 23.7857 101.604 19.3844H108.026C110.187 25.7063 112.308 31.7881 114.388 37.6299C116.469 43.4717 118.609 48.9534 120.81 54.0749C123.011 48.9934 125.151 43.5317 127.232 37.6899C129.313 31.8082 131.413 25.7063 133.534 19.3844H139.776ZM142.876 40.1507C142.876 36.5896 143.396 33.4487 144.436 30.7278C145.517 28.007 146.957 25.7463 148.758 23.9458C150.598 22.1052 152.719 20.7248 155.119 19.8045C157.56 18.8842 160.141 18.4241 162.862 18.4241C165.543 18.4241 168.063 18.8842 170.424 19.8045C172.825 20.7248 174.926 22.1052 176.726 23.9458C178.527 25.7463 179.947 28.007 180.987 30.7278C182.068 33.4487 182.608 36.5896 182.608 40.1507C182.608 43.7118 182.068 46.8527 180.987 49.5736C179.947 52.2944 178.527 54.5751 176.726 56.4157C174.926 58.2162 172.825 59.5766 170.424 60.4969C168.063 61.4172 165.543 61.8773 162.862 61.8773C160.141 61.8773 157.56 61.4172 155.119 60.4969C152.719 59.5766 150.598 58.2162 148.758 56.4157C146.957 54.5751 145.517 52.2944 144.436 49.5736C143.396 46.8527 142.876 43.7118 142.876 40.1507ZM148.998 40.1507C148.998 42.6715 149.318 44.9722 149.958 47.0528C150.598 49.0934 151.498 50.834 152.659 52.2744C153.859 53.7148 155.3 54.8352 156.98 55.6354C158.701 56.3957 160.621 56.7758 162.742 56.7758C164.862 56.7758 166.763 56.3957 168.444 55.6354C170.124 54.8352 171.544 53.7148 172.705 52.2744C173.905 50.834 174.825 49.0934 175.466 47.0528C176.106 44.9722 176.426 42.6715 176.426 40.1507C176.426 37.6299 176.106 35.3492 175.466 33.3086C174.825 31.228 173.905 29.4674 172.705 28.027C171.544 26.5866 170.124 25.4862 168.444 24.726C166.763 23.9257 164.862 23.5256 162.742 23.5256C160.621 23.5256 158.701 23.9257 156.98 24.726C155.3 25.4862 153.859 26.5866 152.659 28.027C151.498 29.4674 150.598 31.228 149.958 33.3086C149.318 35.3492 148.998 37.6299 148.998 40.1507ZM222.059 19.3844C220.819 20.7448 219.418 22.2652 217.858 23.9458C216.297 25.5863 214.657 27.2868 212.936 29.0473C211.256 30.7678 209.575 32.4684 207.895 34.1489C206.214 35.8294 204.634 37.3899 203.153 38.8303C204.874 40.0307 206.694 41.5111 208.615 43.2716C210.536 45.0322 212.416 46.9128 214.257 48.9134C216.097 50.914 217.818 52.9546 219.418 55.0352C221.059 57.1159 222.419 59.0965 223.5 60.9771H216.657C215.457 59.0965 214.077 57.2159 212.516 55.3353C210.956 53.4147 209.295 51.5942 207.535 49.8737C205.814 48.1131 204.054 46.4926 202.253 45.0122C200.493 43.5317 198.772 42.2713 197.091 41.231V60.9771H191.27V19.3844H197.091V37.75C198.492 36.4296 200.032 34.9491 201.713 33.3086C203.393 31.6281 205.054 29.9476 206.694 28.2671C208.335 26.5866 209.875 24.9861 211.316 23.4656C212.796 21.9051 214.037 20.5447 215.037 19.3844H222.059Z" fill="black"/>
<path d="M76.9211 45.2849H92.3776L94.095 50.1849H75.2037L76.9211 45.2849Z" fill="#D9D9D9"/>
<rect x="35.7859" y="27.2975" width="23.3204" height="9.58124" transform="rotate(30.57 35.7859 27.2975)" fill="black"/>
<path d="M60.7414 61.1934L51.1602 66.6167V61.1934L51.1602 17.9874V11.7506L60.7414 17.9874L60.7414 61.1934Z" fill="black"/>
<path d="M0 17.6259L9.58124 11.9314V17.6259V60.8319V66.6168L0 60.8319V17.6259Z" fill="black"/>
<path d="M39.952 73.1031L30.3707 79V71.1262L30.3707 8.39867V0L39.952 6.05607L39.952 73.1031Z" fill="black"/>
<path d="M20.7895 5.60412L30.3707 0V7.87375V70.6013V79L20.7895 72.8596V5.60412Z" fill="black"/>
<circle cx="55.9508" cy="25.0378" r="2.4405" fill="black" stroke="#D9D9D9" stroke-width="1.44622"/>
<path d="M54.595 27.8398H57.4874V58.1047L54.595 59.6568V27.8398Z" fill="#D9D9D9"/>
<circle cx="4.79063" cy="25.0378" r="2.4405" fill="black" stroke="#D9D9D9" stroke-width="1.44622"/>
<path d="M3.43475 27.8398H6.3272V59.5664L3.43475 57.6682V27.8398Z" fill="#D9D9D9"/>
</svg>
